# MagicaVoxel @ Ephtracy

# group
o 

# material
mtllib bunny.mtl
usemtl palette

# normals
vn -1 0 0
vn 1 0 0
vn 0 0 1
vn 0 0 -1
vn 0 -1 0
vn 0 1 0

# texcoords
vt 0.00195312 0.5
vt 0.958984 0.5
vt 0.970703 0.5
vt 0.982422 0.5
vt 0.994141 0.5

# verts
v -0.0999999 0 0.3
v -0.0999999 0 0.0999999
v -0.0999999 0 -0.2
v -0.0999999 0 -0.4
v -0.0999999 0.1 0.3
v -0.0999999 0.1 0.2
v -0.0999999 0.1 0.0999999
v -0.0999999 0.1 -5.96046e-08
v -0.0999999 0.1 -0.2
v -0.0999999 0.1 -0.3
v -0.0999999 0.2 0.4
v -0.0999999 0.2 0.2
v -0.0999999 0.2 0.0999999
v -0.0999999 0.2 -5.96046e-08
v -0.0999999 0.2 -0.1
v -0.0999999 0.2 -0.2
v -0.0999999 0.2 -0.3
v -0.0999999 0.3 0.5
v -0.0999999 0.3 0.4
v -0.0999999 0.3 0.2
v -0.0999999 0.3 0.0999999
v -0.0999999 0.3 -5.96046e-08
v -0.0999999 0.3 -0.1
v -0.0999999 0.3 -0.2
v -0.0999999 0.3 -0.3
v -0.0999999 0.3 -0.4
v -0.0999999 0.4 0.5
v -0.0999999 0.4 0.4
v -0.0999999 0.4 0.3
v -0.0999999 0.4 0.0999999
v -0.0999999 0.4 -5.96046e-08
v -0.0999999 0.4 -0.1
v -0.0999999 0.4 -0.3
v -0.0999999 0.5 0.4
v -0.0999999 0.5 0.3
v -0.0999999 0.5 0.2
v -0.0999999 0.7 0.3
v -0.0999999 0.7 0.2
v -0.0999999 0.8 0.3
v -0.0999999 0.8 0.0999999
v 7.45058e-08 0.1 0.3
v 7.45058e-08 0.1 0.2
v 7.45058e-08 0.1 -0.2
v 7.45058e-08 0.1 -0.3
v 7.45058e-08 0.2 0.5
v 7.45058e-08 0.2 0.4
v 7.45058e-08 0.2 0.3
v 7.45058e-08 0.2 0.2
v 7.45058e-08 0.2 -0.2
v 7.45058e-08 0.2 -0.3
v 7.45058e-08 0.2 -0.4
v 7.45058e-08 0.2 -0.5
v 7.45058e-08 0.3 0.6
v 7.45058e-08 0.3 0.5
v 7.45058e-08 0.3 0.4
v 7.45058e-08 0.3 -0.3
v 7.45058e-08 0.3 -0.4
v 7.45058e-08 0.4 0.6
v 7.45058e-08 0.4 0.5
v 7.45058e-08 0.4 0.0999999
v 7.45058e-08 0.4 -5.96046e-08
v 7.45058e-08 0.4 -0.1
v 7.45058e-08 0.4 -0.3
v 7.45058e-08 0.4 -0.4
v 7.45058e-08 0.4 -0.5
v 7.45058e-08 0.5 0.0999999
v 7.45058e-08 0.5 -0.3
v 0.2 0 0.3
v 0.2 0 0.0999999
v 0.2 0 -0.2
v 0.2 0 -0.4
v 0.2 0.1 0.3
v 0.2 0.1 0.2
v 0.2 0.1 0.0999999
v 0.2 0.1 -0.2
v 0.2 0.1 -0.4
v 0.2 0.5 0.2
v 0.2 0.5 0.0999999
v 0.2 0.7 0.3
v 0.2 0.7 0.2
v 0.2 0.8 0.3
v 0.2 0.8 0.0999999
v 7.45058e-08 0 0.3
v 7.45058e-08 0 0.0999999
v 7.45058e-08 0 -0.2
v 7.45058e-08 0 -0.4
v 7.45058e-08 0.1 0.3
v 7.45058e-08 0.1 0.2
v 7.45058e-08 0.1 0.0999999
v 7.45058e-08 0.1 -0.2
v 7.45058e-08 0.1 -0.4
v 7.45058e-08 0.5 0.2
v 7.45058e-08 0.5 0.0999999
v 7.45058e-08 0.7 0.3
v 7.45058e-08 0.7 0.2
v 7.45058e-08 0.8 0.3
v 7.45058e-08 0.8 0.0999999
v 0.2 0.1 0.3
v 0.2 0.1 0.2
v 0.2 0.1 -0.2
v 0.2 0.1 -0.3
v 0.2 0.2 0.5
v 0.2 0.2 0.4
v 0.2 0.2 0.3
v 0.2 0.2 0.2
v 0.2 0.2 -0.2
v 0.2 0.2 -0.3
v 0.2 0.2 -0.4
v 0.2 0.2 -0.5
v 0.2 0.3 0.6
v 0.2 0.3 0.5
v 0.2 0.3 0.4
v 0.2 0.3 -0.3
v 0.2 0.3 -0.4
v 0.2 0.4 0.6
v 0.2 0.4 0.5
v 0.2 0.4 0.0999999
v 0.2 0.4 -5.96046e-08
v 0.2 0.4 -0.1
v 0.2 0.4 -0.3
v 0.2 0.4 -0.4
v 0.2 0.4 -0.5
v 0.2 0.5 0.0999999
v 0.2 0.5 -0.3
v 0.3 0 0.3
v 0.3 0 0.0999999
v 0.3 0 -0.2
v 0.3 0 -0.4
v 0.3 0.1 0.3
v 0.3 0.1 0.2
v 0.3 0.1 0.0999999
v 0.3 0.1 -5.96046e-08
v 0.3 0.1 -0.2
v 0.3 0.1 -0.3
v 0.3 0.2 0.4
v 0.3 0.2 0.2
v 0.3 0.2 0.0999999
v 0.3 0.2 -5.96046e-08
v 0.3 0.2 -0.1
v 0.3 0.2 -0.2
v 0.3 0.2 -0.3
v 0.3 0.3 0.5
v 0.3 0.3 0.4
v 0.3 0.3 0.2
v 0.3 0.3 0.0999999
v 0.3 0.3 -5.96046e-08
v 0.3 0.3 -0.1
v 0.3 0.3 -0.2
v 0.3 0.3 -0.3
v 0.3 0.3 -0.4
v 0.3 0.4 0.5
v 0.3 0.4 0.4
v 0.3 0.4 0.3
v 0.3 0.4 0.0999999
v 0.3 0.4 -5.96046e-08
v 0.3 0.4 -0.1
v 0.3 0.4 -0.3
v 0.3 0.5 0.4
v 0.3 0.5 0.3
v 0.3 0.5 0.2
v 0.3 0.7 0.3
v 0.3 0.7 0.2
v 0.3 0.8 0.3
v 0.3 0.8 0.0999999
v 7.45058e-08 0.3 0.6
v 7.45058e-08 0.4 0.6
v 0.2 0.3 0.6
v 0.2 0.4 0.6
v -0.0999999 0.3 0.5
v -0.0999999 0.4 0.5
v 7.45058e-08 0.2 0.5
v 7.45058e-08 0.3 0.5
v 7.45058e-08 0.4 0.5
v 0.2 0.2 0.5
v 0.2 0.3 0.5
v 0.2 0.4 0.5
v 0.3 0.3 0.5
v 0.3 0.4 0.5
v -0.0999999 0.2 0.4
v -0.0999999 0.3 0.4
v -0.0999999 0.4 0.4
v -0.0999999 0.5 0.4
v 7.45058e-08 0.2 0.4
v 7.45058e-08 0.3 0.4
v 7.45058e-08 0.4 0.4
v 7.45058e-08 0.5 0.4
v 0.2 0.2 0.4
v 0.2 0.3 0.4
v 0.2 0.4 0.4
v 0.2 0.5 0.4
v 0.3 0.2 0.4
v 0.3 0.3 0.4
v 0.3 0.4 0.4
v 0.3 0.5 0.4
v -0.0999999 0 0.3
v -0.0999999 0.1 0.3
v -0.0999999 0.7 0.3
v -0.0999999 0.8 0.3
v 7.45058e-08 0 0.3
v 7.45058e-08 0.1 0.3
v 7.45058e-08 0.2 0.3
v 7.45058e-08 0.7 0.3
v 7.45058e-08 0.8 0.3
v 0.2 0 0.3
v 0.2 0.1 0.3
v 0.2 0.2 0.3
v 0.2 0.7 0.3
v 0.2 0.8 0.3
v 0.3 0 0.3
v 0.3 0.1 0.3
v 0.3 0.7 0.3
v 0.3 0.8 0.3
v -0.0999999 0.1 0.2
v -0.0999999 0.2 0.2
v -0.0999999 0.5 0.2
v -0.0999999 0.7 0.2
v 7.45058e-08 0.1 0.2
v 7.45058e-08 0.2 0.2
v 7.45058e-08 0.5 0.2
v 7.45058e-08 0.7 0.2
v 0.2 0.1 0.2
v 0.2 0.2 0.2
v 0.2 0.5 0.2
v 0.2 0.7 0.2
v 0.3 0.1 0.2
v 0.3 0.2 0.2
v 0.3 0.5 0.2
v 0.3 0.7 0.2
v -0.0999999 0 -0.2
v -0.0999999 0.1 -0.2
v 7.45058e-08 0 -0.2
v 7.45058e-08 0.1 -0.2
v 0.2 0 -0.2
v 0.2 0.1 -0.2
v 0.3 0 -0.2
v 0.3 0.1 -0.2
v -0.0999999 0.1 -0.3
v -0.0999999 0.2 -0.3
v 7.45058e-08 0.1 -0.3
v 7.45058e-08 0.2 -0.3
v 0.2 0.1 -0.3
v 0.2 0.2 -0.3
v 0.3 0.1 -0.3
v 0.3 0.2 -0.3
v -0.0999999 0 0.0999999
v -0.0999999 0.1 0.0999999
v -0.0999999 0.4 0.0999999
v -0.0999999 0.8 0.0999999
v 7.45058e-08 0 0.0999999
v 7.45058e-08 0.1 0.0999999
v 7.45058e-08 0.4 0.0999999
v 7.45058e-08 0.5 0.0999999
v 7.45058e-08 0.8 0.0999999
v 0.2 0 0.0999999
v 0.2 0.1 0.0999999
v 0.2 0.4 0.0999999
v 0.2 0.5 0.0999999
v 0.2 0.8 0.0999999
v 0.3 0 0.0999999
v 0.3 0.1 0.0999999
v 0.3 0.4 0.0999999
v 0.3 0.8 0.0999999
v -0.0999999 0.1 -0.2
v -0.0999999 0.2 -0.2
v 7.45058e-08 0.1 -0.2
v 7.45058e-08 0.2 -0.2
v 0.2 0.1 -0.2
v 0.2 0.2 -0.2
v 0.3 0.1 -0.2
v 0.3 0.2 -0.2
v -0.0999999 0.3 -0.3
v -0.0999999 0.4 -0.3
v 7.45058e-08 0.3 -0.3
v 7.45058e-08 0.4 -0.3
v 7.45058e-08 0.5 -0.3
v 0.2 0.3 -0.3
v 0.2 0.4 -0.3
v 0.2 0.5 -0.3
v 0.3 0.3 -0.3
v 0.3 0.4 -0.3
v -0.0999999 0 -0.4
v -0.0999999 0.3 -0.4
v 7.45058e-08 0 -0.4
v 7.45058e-08 0.1 -0.4
v 7.45058e-08 0.2 -0.4
v 7.45058e-08 0.3 -0.4
v 0.2 0 -0.4
v 0.2 0.1 -0.4
v 0.2 0.2 -0.4
v 0.2 0.3 -0.4
v 0.3 0 -0.4
v 0.3 0.3 -0.4
v 7.45058e-08 0.2 -0.5
v 7.45058e-08 0.4 -0.5
v 0.2 0.2 -0.5
v 0.2 0.4 -0.5
v -0.0999999 0 0.3
v 7.45058e-08 0 0.3
v 0.2 0 0.3
v 0.3 0 0.3
v -0.0999999 0 0.0999999
v 7.45058e-08 0 0.0999999
v 0.2 0 0.0999999
v 0.3 0 0.0999999
v -0.0999999 0 -0.2
v 7.45058e-08 0 -0.2
v 0.2 0 -0.2
v 0.3 0 -0.2
v -0.0999999 0 -0.4
v 7.45058e-08 0 -0.4
v 0.2 0 -0.4
v 0.3 0 -0.4
v 7.45058e-08 0.1 0.3
v 0.2 0.1 0.3
v 7.45058e-08 0.1 0.2
v 0.2 0.1 0.2
v -0.0999999 0.1 0.0999999
v 7.45058e-08 0.1 0.0999999
v 0.2 0.1 0.0999999
v 0.3 0.1 0.0999999
v -0.0999999 0.1 -5.96046e-08
v 7.45058e-08 0.1 -5.96046e-08
v 0.2 0.1 -5.96046e-08
v 0.3 0.1 -5.96046e-08
v -0.0999999 0.1 -0.2
v 7.45058e-08 0.1 -0.2
v 0.2 0.1 -0.2
v 0.3 0.1 -0.2
v 7.45058e-08 0.1 -0.4
v 0.2 0.1 -0.4
v 7.45058e-08 0.2 0.5
v 0.2 0.2 0.5
v -0.0999999 0.2 0.4
v 7.45058e-08 0.2 0.4
v 0.2 0.2 0.4
v 0.3 0.2 0.4
v 7.45058e-08 0.2 0.3
v 0.2 0.2 0.3
v -0.0999999 0.2 0.2
v 7.45058e-08 0.2 0.2
v 0.2 0.2 0.2
v 0.3 0.2 0.2
v -0.0999999 0.2 -0.2
v 7.45058e-08 0.2 -0.2
v 0.2 0.2 -0.2
v 0.3 0.2 -0.2
v -0.0999999 0.2 -0.3
v 7.45058e-08 0.2 -0.3
v 0.2 0.2 -0.3
v 0.3 0.2 -0.3
v 7.45058e-08 0.2 -0.4
v 0.2 0.2 -0.4
v 7.45058e-08 0.2 -0.5
v 0.2 0.2 -0.5
v 7.45058e-08 0.3 0.6
v 0.2 0.3 0.6
v -0.0999999 0.3 0.5
v 7.45058e-08 0.3 0.5
v 0.2 0.3 0.5
v 0.3 0.3 0.5
v -0.0999999 0.3 0.4
v 7.45058e-08 0.3 0.4
v 0.2 0.3 0.4
v 0.3 0.3 0.4
v -0.0999999 0.7 0.3
v 7.45058e-08 0.7 0.3
v 0.2 0.7 0.3
v 0.3 0.7 0.3
v -0.0999999 0.7 0.2
v 7.45058e-08 0.7 0.2
v 0.2 0.7 0.2
v 0.3 0.7 0.2
v -0.0999999 0.1 0.3
v 7.45058e-08 0.1 0.3
v 0.2 0.1 0.3
v 0.3 0.1 0.3
v -0.0999999 0.1 0.2
v 7.45058e-08 0.1 0.2
v 0.2 0.1 0.2
v 0.3 0.1 0.2
v -0.0999999 0.1 -0.2
v 7.45058e-08 0.1 -0.2
v 0.2 0.1 -0.2
v 0.3 0.1 -0.2
v -0.0999999 0.1 -0.3
v 7.45058e-08 0.1 -0.3
v 0.2 0.1 -0.3
v 0.3 0.1 -0.3
v -0.0999999 0.3 -0.3
v 7.45058e-08 0.3 -0.3
v 0.2 0.3 -0.3
v 0.3 0.3 -0.3
v -0.0999999 0.3 -0.4
v 7.45058e-08 0.3 -0.4
v 0.2 0.3 -0.4
v 0.3 0.3 -0.4
v 7.45058e-08 0.4 0.6
v 0.2 0.4 0.6
v -0.0999999 0.4 0.5
v 7.45058e-08 0.4 0.5
v 0.2 0.4 0.5
v 0.3 0.4 0.5
v -0.0999999 0.4 0.4
v 7.45058e-08 0.4 0.4
v 0.2 0.4 0.4
v 0.3 0.4 0.4
v -0.0999999 0.4 0.0999999
v 7.45058e-08 0.4 0.0999999
v 0.2 0.4 0.0999999
v 0.3 0.4 0.0999999
v -0.0999999 0.4 -5.96046e-08
v 7.45058e-08 0.4 -5.96046e-08
v 0.2 0.4 -5.96046e-08
v 0.3 0.4 -5.96046e-08
v -0.0999999 0.4 -0.1
v 7.45058e-08 0.4 -0.1
v 0.2 0.4 -0.1
v 0.3 0.4 -0.1
v -0.0999999 0.4 -0.3
v 7.45058e-08 0.4 -0.3
v 0.2 0.4 -0.3
v 0.3 0.4 -0.3
v 7.45058e-08 0.4 -0.4
v 0.2 0.4 -0.4
v 7.45058e-08 0.4 -0.5
v 0.2 0.4 -0.5
v -0.0999999 0.5 0.4
v 7.45058e-08 0.5 0.4
v 0.2 0.5 0.4
v 0.3 0.5 0.4
v -0.0999999 0.5 0.3
v 7.45058e-08 0.5 0.3
v 0.2 0.5 0.3
v 0.3 0.5 0.3
v -0.0999999 0.5 0.2
v 7.45058e-08 0.5 0.2
v 0.2 0.5 0.2
v 0.3 0.5 0.2
v 7.45058e-08 0.5 0.0999999
v 0.2 0.5 0.0999999
v 7.45058e-08 0.5 -0.3
v 0.2 0.5 -0.3
v -0.0999999 0.8 0.3
v 7.45058e-08 0.8 0.3
v 0.2 0.8 0.3
v 0.3 0.8 0.3
v -0.0999999 0.8 0.0999999
v 7.45058e-08 0.8 0.0999999
v 0.2 0.8 0.0999999
v 0.3 0.8 0.0999999

# faces
f 5/4/1 2/4/1 1/4/1
f 6/4/1 2/4/1 5/4/1
f 7/4/1 2/4/1 6/4/1
f 9/4/1 4/4/1 3/4/1
f 10/4/1 4/4/1 9/4/1
f 12/4/1 7/4/1 6/4/1
f 13/3/1 8/3/1 7/3/1
f 13/4/1 7/4/1 12/4/1
f 14/4/1 9/4/1 8/4/1
f 14/3/1 8/3/1 13/3/1
f 15/4/1 9/4/1 14/4/1
f 16/4/1 9/4/1 15/4/1
f 17/4/1 4/4/1 10/4/1
f 19/4/1 12/4/1 11/4/1
f 20/3/1 13/3/1 12/3/1
f 20/4/1 12/4/1 19/4/1
f 21/4/1 14/4/1 13/4/1
f 21/3/1 13/3/1 20/3/1
f 21/4/1 15/4/1 14/4/1
f 22/4/1 15/4/1 21/4/1
f 23/3/1 16/3/1 15/3/1
f 23/4/1 15/4/1 22/4/1
f 24/4/1 17/4/1 16/4/1
f 24/3/1 16/3/1 23/3/1
f 25/4/1 4/4/1 17/4/1
f 25/4/1 17/4/1 24/4/1
f 26/4/1 4/4/1 25/4/1
f 27/4/1 22/4/1 21/4/1
f 27/4/1 19/4/1 18/4/1
f 27/4/1 20/4/1 19/4/1
f 27/4/1 21/4/1 20/4/1
f 28/4/1 22/4/1 27/4/1
f 29/4/1 22/4/1 28/4/1
f 30/4/1 22/4/1 29/4/1
f 31/3/1 23/3/1 22/3/1
f 31/4/1 22/4/1 30/4/1
f 32/4/1 25/4/1 24/4/1
f 32/3/1 23/3/1 31/3/1
f 32/4/1 24/4/1 23/4/1
f 33/4/1 25/4/1 32/4/1
f 34/5/1 29/5/1 28/5/1
f 35/4/1 30/4/1 29/4/1
f 35/5/1 29/5/1 34/5/1
f 36/4/1 30/4/1 35/4/1
f 38/4/1 30/4/1 36/4/1
f 39/4/1 38/4/1 37/4/1
f 40/4/1 30/4/1 38/4/1
f 40/4/1 38/4/1 39/4/1
f 47/2/1 42/2/1 41/2/1
f 48/2/1 42/2/1 47/2/1
f 49/4/1 44/4/1 43/4/1
f 50/4/1 44/4/1 49/4/1
f 54/1/1 46/1/1 45/1/1
f 55/1/1 46/1/1 54/1/1
f 57/2/1 52/2/1 51/2/1
f 58/5/1 54/5/1 53/5/1
f 59/5/1 54/5/1 58/5/1
f 63/4/1 57/4/1 56/4/1
f 64/2/1 52/2/1 57/2/1
f 64/4/1 57/4/1 63/4/1
f 65/2/1 52/2/1 64/2/1
f 66/4/1 62/4/1 61/4/1
f 66/4/1 63/4/1 62/4/1
f 66/4/1 61/4/1 60/4/1
f 67/4/1 63/4/1 66/4/1
f 72/4/1 69/4/1 68/4/1
f 73/4/1 69/4/1 72/4/1
f 74/4/1 69/4/1 73/4/1
f 75/4/1 71/4/1 70/4/1
f 76/4/1 71/4/1 75/4/1
f 80/4/1 78/4/1 77/4/1
f 81/4/1 80/4/1 79/4/1
f 82/4/1 78/4/1 80/4/1
f 82/4/1 80/4/1 81/4/1
f 83/4/2 84/4/2 87/4/2
f 87/4/2 84/4/2 88/4/2
f 88/4/2 84/4/2 89/4/2
f 85/4/2 86/4/2 90/4/2
f 90/4/2 86/4/2 91/4/2
f 92/4/2 93/4/2 95/4/2
f 94/4/2 95/4/2 96/4/2
f 95/4/2 93/4/2 97/4/2
f 96/4/2 95/4/2 97/4/2
f 98/2/2 99/2/2 104/2/2
f 104/2/2 99/2/2 105/2/2
f 100/4/2 101/4/2 106/4/2
f 106/4/2 101/4/2 107/4/2
f 102/1/2 103/1/2 111/1/2
f 111/1/2 103/1/2 112/1/2
f 108/2/2 109/2/2 114/2/2
f 110/5/2 111/5/2 115/5/2
f 115/5/2 111/5/2 116/5/2
f 113/4/2 114/4/2 120/4/2
f 114/2/2 109/2/2 121/2/2
f 120/4/2 114/4/2 121/4/2
f 121/2/2 109/2/2 122/2/2
f 118/4/2 119/4/2 123/4/2
f 119/4/2 120/4/2 123/4/2
f 117/4/2 118/4/2 123/4/2
f 123/4/2 120/4/2 124/4/2
f 125/4/2 126/4/2 129/4/2
f 129/4/2 126/4/2 130/4/2
f 130/4/2 126/4/2 131/4/2
f 127/4/2 128/4/2 133/4/2
f 133/4/2 128/4/2 134/4/2
f 130/4/2 131/4/2 136/4/2
f 131/3/2 132/3/2 137/3/2
f 136/4/2 131/4/2 137/4/2
f 132/4/2 133/4/2 138/4/2
f 137/3/2 132/3/2 138/3/2
f 138/4/2 133/4/2 139/4/2
f 139/4/2 133/4/2 140/4/2
f 134/4/2 128/4/2 141/4/2
f 135/4/2 136/4/2 143/4/2
f 136/3/2 137/3/2 144/3/2
f 143/4/2 136/4/2 144/4/2
f 137/4/2 138/4/2 145/4/2
f 144/3/2 137/3/2 145/3/2
f 138/4/2 139/4/2 145/4/2
f 145/4/2 139/4/2 146/4/2
f 139/3/2 140/3/2 147/3/2
f 146/4/2 139/4/2 147/4/2
f 140/4/2 141/4/2 148/4/2
f 147/3/2 140/3/2 148/3/2
f 141/4/2 128/4/2 149/4/2
f 148/4/2 141/4/2 149/4/2
f 149/4/2 128/4/2 150/4/2
f 145/4/2 146/4/2 151/4/2
f 142/4/2 143/4/2 151/4/2
f 143/4/2 144/4/2 151/4/2
f 144/4/2 145/4/2 151/4/2
f 151/4/2 146/4/2 152/4/2
f 152/4/2 146/4/2 153/4/2
f 153/4/2 146/4/2 154/4/2
f 146/3/2 147/3/2 155/3/2
f 154/4/2 146/4/2 155/4/2
f 148/4/2 149/4/2 156/4/2
f 155/3/2 147/3/2 156/3/2
f 147/4/2 148/4/2 156/4/2
f 156/4/2 149/4/2 157/4/2
f 152/5/2 153/5/2 158/5/2
f 153/4/2 154/4/2 159/4/2
f 158/5/2 153/5/2 159/5/2
f 159/4/2 154/4/2 160/4/2
f 160/4/2 154/4/2 162/4/2
f 161/4/2 162/4/2 163/4/2
f 162/4/2 154/4/2 164/4/2
f 163/4/2 162/4/2 164/4/2
f 167/5/3 166/5/3 165/5/3
f 168/5/3 166/5/3 167/5/3
f 172/4/3 170/4/3 169/4/3
f 173/4/3 170/4/3 172/4/3
f 174/1/3 172/1/3 171/1/3
f 175/1/3 172/1/3 174/1/3
f 177/4/3 176/4/3 175/4/3
f 178/4/3 176/4/3 177/4/3
f 183/4/3 180/4/3 179/4/3
f 184/4/3 180/4/3 183/4/3
f 185/5/3 182/5/3 181/5/3
f 186/5/3 182/5/3 185/5/3
f 189/4/3 186/4/3 185/4/3
f 190/4/3 186/4/3 189/4/3
f 191/4/3 188/4/3 187/4/3
f 192/4/3 188/4/3 191/4/3
f 193/5/3 190/5/3 189/5/3
f 194/5/3 190/5/3 193/5/3
f 199/4/3 196/4/3 195/4/3
f 200/4/3 196/4/3 199/4/3
f 202/4/3 198/4/3 197/4/3
f 203/4/3 198/4/3 202/4/3
f 205/2/3 201/2/3 200/2/3
f 206/2/3 201/2/3 205/2/3
f 209/4/3 205/4/3 204/4/3
f 210/4/3 205/4/3 209/4/3
f 211/4/3 208/4/3 207/4/3
f 212/4/3 208/4/3 211/4/3
f 217/4/3 214/4/3 213/4/3
f 218/4/3 214/4/3 217/4/3
f 219/4/3 216/4/3 215/4/3
f 220/4/3 216/4/3 219/4/3
f 225/4/3 222/4/3 221/4/3
f 226/4/3 222/4/3 225/4/3
f 227/4/3 224/4/3 223/4/3
f 228/4/3 224/4/3 227/4/3
f 231/4/3 230/4/3 229/4/3
f 232/4/3 230/4/3 231/4/3
f 235/4/3 234/4/3 233/4/3
f 236/4/3 234/4/3 235/4/3
f 239/4/3 238/4/3 237/4/3
f 240/4/3 238/4/3 239/4/3
f 243/4/3 242/4/3 241/4/3
f 244/4/3 242/4/3 243/4/3
f 245/4/4 246/4/4 249/4/4
f 249/4/4 246/4/4 250/4/4
f 247/4/4 248/4/4 251/4/4
f 251/4/4 248/4/4 252/4/4
f 252/4/4 248/4/4 253/4/4
f 254/4/4 255/4/4 259/4/4
f 259/4/4 255/4/4 260/4/4
f 257/4/4 258/4/4 261/4/4
f 256/4/4 257/4/4 261/4/4
f 261/4/4 258/4/4 262/4/4
f 263/4/4 264/4/4 265/4/4
f 265/4/4 264/4/4 266/4/4
f 267/4/4 268/4/4 269/4/4
f 269/4/4 268/4/4 270/4/4
f 271/4/4 272/4/4 273/4/4
f 273/4/4 272/4/4 274/4/4
f 274/4/4 275/4/4 277/4/4
f 277/4/4 275/4/4 278/4/4
f 276/4/4 277/4/4 279/4/4
f 279/4/4 277/4/4 280/4/4
f 281/4/4 282/4/4 283/4/4
f 283/4/4 282/4/4 284/4/4
f 284/4/4 282/4/4 285/4/4
f 285/4/4 282/4/4 286/4/4
f 284/4/4 285/4/4 288/4/4
f 288/4/4 285/4/4 289/4/4
f 287/4/4 288/4/4 291/4/4
f 289/4/4 290/4/4 291/4/4
f 288/4/4 289/4/4 291/4/4
f 291/4/4 290/4/4 292/4/4
f 293/2/4 294/2/4 295/2/4
f 295/2/4 294/2/4 296/2/4
f 301/4/5 298/4/5 297/4/5
f 302/4/5 298/4/5 301/4/5
f 303/4/5 300/4/5 299/4/5
f 304/4/5 300/4/5 303/4/5
f 309/4/5 306/4/5 305/4/5
f 310/4/5 306/4/5 309/4/5
f 311/4/5 308/4/5 307/4/5
f 312/4/5 308/4/5 311/4/5
f 315/2/5 314/2/5 313/2/5
f 316/2/5 314/2/5 315/2/5
f 318/4/5 316/4/5 315/4/5
f 319/4/5 316/4/5 318/4/5
f 321/3/5 318/3/5 317/3/5
f 322/4/5 319/4/5 318/4/5
f 322/3/5 318/3/5 321/3/5
f 323/3/5 320/3/5 319/3/5
f 323/4/5 319/4/5 322/4/5
f 324/3/5 320/3/5 323/3/5
f 325/4/5 322/4/5 321/4/5
f 325/4/5 323/4/5 322/4/5
f 325/4/5 324/4/5 323/4/5
f 326/4/5 324/4/5 325/4/5
f 327/4/5 324/4/5 326/4/5
f 328/4/5 324/4/5 327/4/5
f 329/4/5 327/4/5 326/4/5
f 330/4/5 327/4/5 329/4/5
f 334/1/5 332/1/5 331/1/5
f 335/1/5 332/1/5 334/1/5
f 337/4/5 334/4/5 333/4/5
f 337/4/5 336/4/5 335/4/5
f 337/4/5 335/4/5 334/4/5
f 338/4/5 336/4/5 337/4/5
f 339/4/5 337/4/5 333/4/5
f 340/4/5 337/4/5 339/4/5
f 341/4/5 336/4/5 338/4/5
f 342/4/5 336/4/5 341/4/5
f 347/4/5 344/4/5 343/4/5
f 348/4/5 344/4/5 347/4/5
f 349/4/5 346/4/5 345/4/5
f 350/4/5 346/4/5 349/4/5
f 353/2/5 352/2/5 351/2/5
f 354/2/5 352/2/5 353/2/5
f 358/5/5 356/5/5 355/5/5
f 359/5/5 356/5/5 358/5/5
f 361/4/5 358/4/5 357/4/5
f 362/4/5 358/4/5 361/4/5
f 363/4/5 360/4/5 359/4/5
f 364/4/5 360/4/5 363/4/5
f 369/4/5 366/4/5 365/4/5
f 370/4/5 366/4/5 369/4/5
f 371/4/5 368/4/5 367/4/5
f 372/4/5 368/4/5 371/4/5
f 373/4/6 374/4/6 377/4/6
f 377/4/6 374/4/6 378/4/6
f 375/4/6 376/4/6 379/4/6
f 379/4/6 376/4/6 380/4/6
f 381/4/6 382/4/6 385/4/6
f 385/4/6 382/4/6 386/4/6
f 383/4/6 384/4/6 387/4/6
f 387/4/6 384/4/6 388/4/6
f 389/4/6 390/4/6 393/4/6
f 393/4/6 390/4/6 394/4/6
f 391/4/6 392/4/6 395/4/6
f 395/4/6 392/4/6 396/4/6
f 397/5/6 398/5/6 400/5/6
f 400/5/6 398/5/6 401/5/6
f 399/4/6 400/4/6 403/4/6
f 401/4/6 402/4/6 403/4/6
f 400/4/6 401/4/6 403/4/6
f 403/4/6 402/4/6 404/4/6
f 404/4/6 402/4/6 405/4/6
f 405/4/6 402/4/6 406/4/6
f 407/4/6 408/4/6 411/4/6
f 411/4/6 408/4/6 412/4/6
f 409/4/6 410/4/6 413/4/6
f 413/4/6 410/4/6 414/4/6
f 411/3/6 412/3/6 415/3/6
f 415/3/6 412/3/6 416/3/6
f 413/3/6 414/3/6 417/3/6
f 417/3/6 414/3/6 418/3/6
f 415/4/6 416/4/6 419/4/6
f 419/4/6 416/4/6 420/4/6
f 417/4/6 418/4/6 421/4/6
f 421/4/6 418/4/6 422/4/6
f 420/4/6 421/4/6 423/4/6
f 423/4/6 421/4/6 424/4/6
f 423/2/6 424/2/6 425/2/6
f 425/2/6 424/2/6 426/2/6
f 427/5/6 428/5/6 431/5/6
f 428/4/6 429/4/6 432/4/6
f 431/5/6 428/5/6 432/5/6
f 429/5/6 430/5/6 433/5/6
f 432/4/6 429/4/6 433/4/6
f 433/5/6 430/5/6 434/5/6
f 431/4/6 432/4/6 435/4/6
f 432/4/6 433/4/6 435/4/6
f 433/4/6 434/4/6 435/4/6
f 435/4/6 434/4/6 436/4/6
f 436/4/6 434/4/6 437/4/6
f 437/4/6 434/4/6 438/4/6
f 436/4/6 437/4/6 439/4/6
f 439/4/6 437/4/6 440/4/6
f 439/4/6 440/4/6 441/4/6
f 441/4/6 440/4/6 442/4/6
f 443/4/6 444/4/6 447/4/6
f 447/4/6 444/4/6 448/4/6
f 445/4/6 446/4/6 449/4/6
f 449/4/6 446/4/6 450/4/6
