# MagicaVoxel @ Ephtracy

# group
o 

# material
mtllib bunny.vox.mtl
usemtl palette

# normals
vn -1 0 0
vn 1 0 0
vn 0 0 1
vn 0 0 -1
vn 0 -1 0
vn 0 1 0

# texcoords
vt 0.00195312 0.5
vt 0.0292969 0.5
vt 0.0527344 0.5
vt 0.970703 0.5
vt 0.982422 0.5
vt 0.994141 0.5

# verts
v -0.5 0 -0.1
v -0.5 0 -0.7
v -0.5 0.2 -0.1
v -0.5 0.2 -0.7
v -0.3 0 0.7
v -0.3 0 0.3
v -0.3 0.2 0.7
v -0.3 0.2 0.3
v -0.3 0.2 -0.1
v -0.3 0.2 -0.2
v -0.3 0.2 -0.5
v -0.3 0.2 -0.7
v -0.3 0.3 0.0999999
v -0.3 0.3 -1.19209e-07
v -0.3 0.3 -0.2
v -0.3 0.3 -0.5
v -0.3 0.5 0.0999999
v -0.3 0.5 -1.19209e-07
v -0.3 0.5 -0.3
v -0.3 0.5 -0.5
v -0.3 0.5 -0.7
v -0.3 0.6 0.3
v -0.3 0.6 -1.19209e-07
v -0.3 0.6 -0.3
v -0.3 0.6 -0.5
v -0.3 0.6 -0.7
v -0.2 0.3 -0.7
v -0.2 0.3 -0.8
v -0.2 0.5 -0.7
v -0.2 0.5 -0.8
v -0.1 0 0.3
v -0.1 0 -0.3
v -0.1 0.2 0.5
v -0.1 0.2 0.3
v -0.1 0.2 -0.3
v -0.1 0.2 -0.7
v -0.1 0.2 -0.8
v -0.1 0.3 0.7
v -0.1 0.3 0.5
v -0.1 0.3 -0.7
v -0.1 0.3 -0.8
v -0.1 0.3 -0.9
v -0.1 0.4 0.6
v -0.1 0.4 0.4
v -0.1 0.5 0.6
v -0.1 0.5 0.4
v -0.1 0.5 -0.7
v -0.1 0.5 -0.8
v -0.1 0.5 -0.9
v -0.1 0.6 0.7
v -0.1 0.6 0.5
v -0.1 0.6 0.3
v -0.1 0.6 -0.7
v -0.1 0.6 -0.8
v -0.1 0.7 0.2
v -0.1 0.7 -0.1
v -0.1 0.7 -0.6
v -0.1 0.7 -0.7
v -0.1 0.8 0.5
v -0.1 0.8 0.4
v -0.1 0.8 0.2
v -0.1 0.8 -0.1
v -0.1 0.8 -0.6
v -0.1 1.5 0.6
v -0.1 1.5 0.4
v -0.1 1.6 0.6
v -0.1 1.6 0.2
v 0 0.1 -0.7
v 0 0.1 -0.8
v 0 0.2 0.7
v 0 0.2 0.5
v 0 0.2 -0.7
v 0 0.2 -0.8
v 0 0.2 -0.9
v 0 0.3 0.7
v 0 0.3 0.5
v 0 0.3 -0.8
v 0 0.3 -0.9
v 0 0.4 0.9
v 0 0.4 0.7
v 0 0.5 -0.8
v 0 0.5 -0.9
v 0 0.6 0.9
v 0 0.6 0.7
v 0 0.6 0.5
v 0 0.6 -0.7
v 0 0.6 -0.8
v 0 0.6 -0.9
v 0 0.7 0.7
v 0 0.7 0.6
v 0 0.7 -0.6
v 0 0.7 -0.7
v 0 0.7 -0.8
v 0 0.8 0.7
v 0 0.8 0.6
v 0 0.8 0.5
v 0 0.8 -0.6
v 0 0.8 -0.7
v 0.1 0.3 0.8
v 0.1 0.3 0.7
v 0.1 0.4 1
v 0.1 0.4 0.9
v 0.1 0.4 0.8
v 0.1 0.4 0.7
v 0.1 0.4 -0.9
v 0.1 0.4 -1
v 0.1 0.6 1
v 0.1 0.6 0.9
v 0.1 0.6 -0.9
v 0.1 0.6 -1
v 0.3 0.8 0.4
v 0.3 0.8 0.3
v 0.3 0.8 0.2
v 0.3 1.5 0.6
v 0.3 1.5 0.4
v 0.3 1.5 0.3
v 0.3 1.6 0.6
v 0.3 1.6 0.2
v 0.5 0 0.7
v 0.5 0 0.3
v 0.5 0.2 0.7
v 0.5 0.2 0.5
v 0.5 0.2 0.3
v 0.7 0 -0.1
v 0.7 0 -0.3
v 0.7 0.2 -0.1
v 0.7 0.2 -0.3
v -0.3 0 -0.1
v -0.3 0 -0.3
v -0.3 0.2 -0.1
v -0.3 0.2 -0.2
v -0.3 0.2 -0.3
v -0.1 0 0.7
v -0.1 0 0.3
v -0.1 0.2 0.7
v -0.1 0.2 0.5
v -0.1 0.2 0.3
v 0.1 0.8 0.4
v 0.1 0.8 0.3
v 0.1 0.8 0.2
v 0.1 1.5 0.6
v 0.1 1.5 0.4
v 0.1 1.5 0.3
v 0.1 1.6 0.6
v 0.1 1.6 0.2
v 0.3 0.3 0.8
v 0.3 0.3 0.7
v 0.3 0.4 1
v 0.3 0.4 0.9
v 0.3 0.4 0.8
v 0.3 0.4 0.7
v 0.3 0.4 -0.9
v 0.3 0.4 -1
v 0.3 0.6 1
v 0.3 0.6 0.9
v 0.3 0.6 -0.9
v 0.3 0.6 -1
v 0.4 0.1 -0.7
v 0.4 0.1 -0.8
v 0.4 0.2 0.7
v 0.4 0.2 0.5
v 0.4 0.2 -0.7
v 0.4 0.2 -0.8
v 0.4 0.2 -0.9
v 0.4 0.3 0.7
v 0.4 0.3 0.5
v 0.4 0.3 -0.8
v 0.4 0.3 -0.9
v 0.4 0.4 0.9
v 0.4 0.4 0.7
v 0.4 0.5 -0.8
v 0.4 0.5 -0.9
v 0.4 0.6 0.9
v 0.4 0.6 0.7
v 0.4 0.6 0.5
v 0.4 0.6 -0.7
v 0.4 0.6 -0.8
v 0.4 0.6 -0.9
v 0.4 0.7 0.7
v 0.4 0.7 0.6
v 0.4 0.7 -0.6
v 0.4 0.7 -0.7
v 0.4 0.7 -0.8
v 0.4 0.8 0.7
v 0.4 0.8 0.6
v 0.4 0.8 0.5
v 0.4 0.8 -0.6
v 0.4 0.8 -0.7
v 0.5 0 0.3
v 0.5 0 -0.3
v 0.5 0.2 0.5
v 0.5 0.2 0.3
v 0.5 0.2 -0.3
v 0.5 0.2 -0.7
v 0.5 0.2 -0.8
v 0.5 0.3 0.7
v 0.5 0.3 0.5
v 0.5 0.3 -0.7
v 0.5 0.3 -0.8
v 0.5 0.3 -0.9
v 0.5 0.4 0.6
v 0.5 0.4 0.4
v 0.5 0.5 0.6
v 0.5 0.5 0.4
v 0.5 0.5 -0.7
v 0.5 0.5 -0.8
v 0.5 0.5 -0.9
v 0.5 0.6 0.7
v 0.5 0.6 0.5
v 0.5 0.6 0.3
v 0.5 0.6 -0.7
v 0.5 0.6 -0.8
v 0.5 0.7 -0.2
v 0.5 0.7 -0.5
v 0.5 0.7 -0.6
v 0.5 0.7 -0.7
v 0.5 0.8 0.5
v 0.5 0.8 0.4
v 0.5 0.8 0.2
v 0.5 0.8 -0.2
v 0.5 0.8 -0.5
v 0.5 0.8 -0.6
v 0.5 1.5 0.6
v 0.5 1.5 0.4
v 0.5 1.6 0.6
v 0.5 1.6 0.2
v 0.6 0.3 -0.7
v 0.6 0.3 -0.8
v 0.6 0.4 -0.7
v 0.6 0.5 -0.7
v 0.6 0.5 -0.8
v 0.7 0 0.7
v 0.7 0 0.3
v 0.7 0.2 0.7
v 0.7 0.2 0.3
v 0.7 0.2 -0.1
v 0.7 0.2 -0.7
v 0.7 0.3 -0.4
v 0.7 0.3 -0.7
v 0.7 0.4 0.0999999
v 0.7 0.4 -0.2
v 0.7 0.4 -0.4
v 0.7 0.4 -0.7
v 0.7 0.6 0.3
v 0.7 0.6 0.0999999
v 0.7 0.6 -0.2
v 0.7 0.6 -0.7
v 0.9 0 -0.1
v 0.9 0 -0.7
v 0.9 0.2 -0.1
v 0.9 0.2 -0.7
v 0.1 0.4 1
v 0.1 0.6 1
v 0.3 0.4 1
v 0.3 0.6 1
v 0 0.4 0.9
v 0 0.6 0.9
v 0.1 0.4 0.9
v 0.1 0.6 0.9
v 0.3 0.4 0.9
v 0.3 0.6 0.9
v 0.4 0.4 0.9
v 0.4 0.6 0.9
v 0.1 0.3 0.8
v 0.1 0.4 0.8
v 0.3 0.3 0.8
v 0.3 0.4 0.8
v -0.3 0 0.7
v -0.3 0.2 0.7
v -0.1 0 0.7
v -0.1 0.2 0.7
v -0.1 0.3 0.7
v -0.1 0.6 0.7
v 0 0.2 0.7
v 0 0.3 0.7
v 0 0.4 0.7
v 0 0.6 0.7
v 0 0.7 0.7
v 0 0.8 0.7
v 0.1 0.3 0.7
v 0.1 0.4 0.7
v 0.1 0.7 0.7
v 0.1 0.8 0.7
v 0.3 0.3 0.7
v 0.3 0.4 0.7
v 0.3 0.7 0.7
v 0.3 0.8 0.7
v 0.4 0.2 0.7
v 0.4 0.3 0.7
v 0.4 0.4 0.7
v 0.4 0.6 0.7
v 0.4 0.7 0.7
v 0.4 0.8 0.7
v 0.5 0 0.7
v 0.5 0.2 0.7
v 0.5 0.3 0.7
v 0.5 0.6 0.7
v 0.7 0 0.7
v 0.7 0.2 0.7
v -0.1 1.5 0.6
v -0.1 1.6 0.6
v 0.1 1.5 0.6
v 0.1 1.6 0.6
v 0.3 1.5 0.6
v 0.3 1.6 0.6
v 0.5 1.5 0.6
v 0.5 1.6 0.6
v -0.1 0.2 0.5
v -0.1 0.3 0.5
v -0.1 0.6 0.5
v -0.1 0.8 0.5
v 0 0.2 0.5
v 0 0.3 0.5
v 0 0.6 0.5
v 0 0.8 0.5
v 0.4 0.2 0.5
v 0.4 0.3 0.5
v 0.4 0.6 0.5
v 0.4 0.8 0.5
v 0.5 0.2 0.5
v 0.5 0.3 0.5
v 0.5 0.6 0.5
v 0.5 0.8 0.5
v -0.1 0.8 0.4
v -0.1 1.5 0.4
v 0 0.8 0.4
v 0 1.5 0.4
v 0.1 0.8 0.4
v 0.1 1.5 0.4
v 0.3 0.8 0.4
v 0.3 1.5 0.4
v 0.4 0.8 0.4
v 0.4 1.5 0.4
v 0.5 0.8 0.4
v 0.5 1.5 0.4
v -0.3 0.2 0.3
v -0.3 0.6 0.3
v -0.1 0 0.3
v -0.1 0.2 0.3
v -0.1 0.6 0.3
v 0.5 0 0.3
v 0.5 0.2 0.3
v 0.5 0.6 0.3
v 0.7 0.2 0.3
v 0.7 0.6 0.3
v -0.5 0 -0.1
v -0.5 0.2 -0.1
v -0.3 0 -0.1
v -0.3 0.2 -0.1
v 0.7 0 -0.1
v 0.7 0.2 -0.1
v 0.9 0 -0.1
v 0.9 0.2 -0.1
v -0.3 0 -0.3
v -0.3 0.2 -0.3
v -0.2 0.2 -0.3
v -0.1 0 -0.3
v -0.1 0.2 -0.3
v 0.5 0 -0.3
v 0.5 0.2 -0.3
v 0.7 0 -0.3
v 0.7 0.2 -0.3
v -0.3 0 0.3
v -0.3 0.2 0.3
v -0.1 0 0.3
v -0.1 0.2 0.3
v 0.5 0 0.3
v 0.5 0.2 0.3
v 0.7 0 0.3
v 0.7 0.2 0.3
v -0.1 0.8 0.2
v -0.1 1.6 0.2
v 0 0.8 0.2
v 0.1 0.8 0.2
v 0.1 1.6 0.2
v 0.3 0.8 0.2
v 0.3 1.6 0.2
v 0.5 0.8 0.2
v 0.5 1.6 0.2
v -0.1 0.7 -0.6
v -0.1 0.8 -0.6
v 0 0.7 -0.6
v 0 0.8 -0.6
v 0.4 0.7 -0.6
v 0.4 0.8 -0.6
v 0.5 0.7 -0.6
v 0.5 0.8 -0.6
v -0.5 0 -0.7
v -0.5 0.2 -0.7
v -0.3 0.2 -0.7
v -0.3 0.5 -0.7
v -0.3 0.6 -0.7
v -0.2 0.3 -0.7
v -0.2 0.5 -0.7
v -0.2 0.6 -0.7
v -0.1 0.2 -0.7
v -0.1 0.3 -0.7
v -0.1 0.5 -0.7
v -0.1 0.6 -0.7
v -0.1 0.7 -0.7
v 0 0.1 -0.7
v 0 0.2 -0.7
v 0 0.6 -0.7
v 0 0.7 -0.7
v 0 0.8 -0.7
v 0.4 0.1 -0.7
v 0.4 0.2 -0.7
v 0.4 0.6 -0.7
v 0.4 0.7 -0.7
v 0.4 0.8 -0.7
v 0.5 0.2 -0.7
v 0.5 0.3 -0.7
v 0.5 0.5 -0.7
v 0.5 0.6 -0.7
v 0.5 0.7 -0.7
v 0.6 0.3 -0.7
v 0.6 0.4 -0.7
v 0.6 0.5 -0.7
v 0.7 0.2 -0.7
v 0.7 0.3 -0.7
v 0.7 0.4 -0.7
v 0.7 0.6 -0.7
v 0.9 0 -0.7
v 0.9 0.2 -0.7
v -0.2 0.3 -0.8
v -0.2 0.5 -0.8
v -0.1 0.2 -0.8
v -0.1 0.3 -0.8
v -0.1 0.5 -0.8
v -0.1 0.6 -0.8
v 0 0.1 -0.8
v 0 0.2 -0.8
v 0 0.3 -0.8
v 0 0.5 -0.8
v 0 0.6 -0.8
v 0 0.7 -0.8
v 0.4 0.1 -0.8
v 0.4 0.2 -0.8
v 0.4 0.3 -0.8
v 0.4 0.5 -0.8
v 0.4 0.6 -0.8
v 0.4 0.7 -0.8
v 0.5 0.2 -0.8
v 0.5 0.3 -0.8
v 0.5 0.5 -0.8
v 0.5 0.6 -0.8
v 0.6 0.3 -0.8
v 0.6 0.5 -0.8
v -0.1 0.3 -0.9
v -0.1 0.5 -0.9
v 0 0.2 -0.9
v 0 0.3 -0.9
v 0 0.5 -0.9
v 0 0.6 -0.9
v 0.1 0.4 -0.9
v 0.1 0.6 -0.9
v 0.3 0.4 -0.9
v 0.3 0.6 -0.9
v 0.4 0.2 -0.9
v 0.4 0.3 -0.9
v 0.4 0.5 -0.9
v 0.4 0.6 -0.9
v 0.5 0.3 -0.9
v 0.5 0.5 -0.9
v 0.1 0.4 -1
v 0.1 0.6 -1
v 0.3 0.4 -1
v 0.3 0.6 -1
v -0.3 0 0.7
v -0.1 0 0.7
v 0.5 0 0.7
v 0.7 0 0.7
v -0.3 0 0.3
v -0.1 0 0.3
v 0.5 0 0.3
v 0.7 0 0.3
v -0.5 0 -0.1
v -0.3 0 -0.1
v 0.7 0 -0.1
v 0.9 0 -0.1
v -0.3 0 -0.3
v -0.1 0 -0.3
v 0.5 0 -0.3
v 0.7 0 -0.3
v -0.5 0 -0.7
v 0.9 0 -0.7
v 0 0.1 -0.7
v 0.4 0.1 -0.7
v 0 0.1 -0.8
v 0.4 0.1 -0.8
v 0 0.2 0.7
v 0.4 0.2 0.7
v -0.1 0.2 0.5
v 0 0.2 0.5
v 0.4 0.2 0.5
v 0.5 0.2 0.5
v -0.3 0.2 0.3
v -0.1 0.2 0.3
v 0.5 0.2 0.3
v 0.7 0.2 0.3
v -0.3 0.2 -0.1
v 0.7 0.2 -0.1
v -0.3 0.2 -0.2
v -0.2 0.2 -0.2
v -0.3 0.2 -0.3
v -0.2 0.2 -0.3
v -0.1 0.2 -0.3
v 0.5 0.2 -0.3
v 0.7 0.2 -0.3
v -0.1 0.2 -0.7
v 0 0.2 -0.7
v 0.4 0.2 -0.7
v 0.5 0.2 -0.7
v -0.1 0.2 -0.8
v 0 0.2 -0.8
v 0.4 0.2 -0.8
v 0.5 0.2 -0.8
v 0 0.2 -0.9
v 0.4 0.2 -0.9
v 0.1 0.3 0.8
v 0.3 0.3 0.8
v -0.1 0.3 0.7
v 0 0.3 0.7
v 0.1 0.3 0.7
v 0.3 0.3 0.7
v 0.4 0.3 0.7
v 0.5 0.3 0.7
v -0.1 0.3 0.5
v 0 0.3 0.5
v 0.4 0.3 0.5
v 0.5 0.3 0.5
v -0.2 0.3 -0.7
v -0.1 0.3 -0.7
v 0.5 0.3 -0.7
v 0.6 0.3 -0.7
v -0.2 0.3 -0.8
v -0.1 0.3 -0.8
v 0 0.3 -0.8
v 0.4 0.3 -0.8
v 0.5 0.3 -0.8
v 0.6 0.3 -0.8
v -0.1 0.3 -0.9
v 0 0.3 -0.9
v 0.4 0.3 -0.9
v 0.5 0.3 -0.9
v 0.1 0.4 1
v 0.3 0.4 1
v 0 0.4 0.9
v 0.1 0.4 0.9
v 0.3 0.4 0.9
v 0.4 0.4 0.9
v 0.1 0.4 0.8
v 0.3 0.4 0.8
v 0 0.4 0.7
v 0.1 0.4 0.7
v 0.3 0.4 0.7
v 0.4 0.4 0.7
v 0.1 0.4 -0.9
v 0.3 0.4 -0.9
v 0.1 0.4 -1
v 0.3 0.4 -1
v -0.1 1.5 0.6
v 0.1 1.5 0.6
v 0.3 1.5 0.6
v 0.5 1.5 0.6
v -0.1 1.5 0.4
v 0 1.5 0.4
v 0.1 1.5 0.4
v 0.3 1.5 0.4
v 0.4 1.5 0.4
v 0.5 1.5 0.4
v -0.3 0.2 0.7
v -0.1 0.2 0.7
v 0.5 0.2 0.7
v 0.7 0.2 0.7
v -0.1 0.2 0.5
v 0.5 0.2 0.5
v -0.3 0.2 0.3
v -0.1 0.2 0.3
v 0.5 0.2 0.3
v 0.7 0.2 0.3
v -0.5 0.2 -0.1
v -0.3 0.2 -0.1
v 0.7 0.2 -0.1
v 0.9 0.2 -0.1
v -0.3 0.2 -0.2
v -0.3 0.2 -0.5
v -0.5 0.2 -0.7
v -0.3 0.2 -0.7
v 0.7 0.2 -0.7
v 0.9 0.2 -0.7
v -0.2 0.5 -0.7
v -0.1 0.5 -0.7
v 0.5 0.5 -0.7
v 0.6 0.5 -0.7
v -0.2 0.5 -0.8
v -0.1 0.5 -0.8
v 0 0.5 -0.8
v 0.4 0.5 -0.8
v 0.5 0.5 -0.8
v 0.6 0.5 -0.8
v -0.1 0.5 -0.9
v 0 0.5 -0.9
v 0.4 0.5 -0.9
v 0.5 0.5 -0.9
v 0.1 0.6 1
v 0.3 0.6 1
v 0 0.6 0.9
v 0.1 0.6 0.9
v 0.3 0.6 0.9
v 0.4 0.6 0.9
v -0.1 0.6 0.7
v 0 0.6 0.7
v 0.4 0.6 0.7
v 0.5 0.6 0.7
v -0.1 0.6 0.5
v 0 0.6 0.5
v 0.4 0.6 0.5
v 0.5 0.6 0.5
v -0.3 0.6 0.3
v -0.1 0.6 0.3
v 0.5 0.6 0.3
v 0.7 0.6 0.3
v 0.6 0.6 0.0999999
v 0.7 0.6 0.0999999
v -0.3 0.6 -1.19209e-07
v -0.2 0.6 -1.19209e-07
v 0.6 0.6 -0.2
v 0.7 0.6 -0.2
v -0.3 0.6 -0.3
v -0.2 0.6 -0.3
v -0.3 0.6 -0.5
v -0.2 0.6 -0.5
v -0.3 0.6 -0.7
v -0.2 0.6 -0.7
v -0.1 0.6 -0.7
v 0 0.6 -0.7
v 0.4 0.6 -0.7
v 0.5 0.6 -0.7
v 0.7 0.6 -0.7
v -0.1 0.6 -0.8
v 0 0.6 -0.8
v 0.4 0.6 -0.8
v 0.5 0.6 -0.8
v 0 0.6 -0.9
v 0.1 0.6 -0.9
v 0.3 0.6 -0.9
v 0.4 0.6 -0.9
v 0.1 0.6 -1
v 0.3 0.6 -1
v -0.1 0.7 -0.6
v 0 0.7 -0.6
v 0.4 0.7 -0.6
v 0.5 0.7 -0.6
v -0.1 0.7 -0.7
v 0 0.7 -0.7
v 0.4 0.7 -0.7
v 0.5 0.7 -0.7
v 0 0.7 -0.8
v 0.4 0.7 -0.8
v 0 0.8 0.7
v 0.1 0.8 0.7
v 0.3 0.8 0.7
v 0.4 0.8 0.7
v 0 0.8 0.6
v 0.1 0.8 0.6
v 0.3 0.8 0.6
v 0.4 0.8 0.6
v -0.1 0.8 0.5
v 0 0.8 0.5
v 0.4 0.8 0.5
v 0.5 0.8 0.5
v -0.1 0.8 0.4
v 0 0.8 0.4
v 0.1 0.8 0.4
v 0.3 0.8 0.4
v 0.4 0.8 0.4
v 0.5 0.8 0.4
v 0.1 0.8 0.3
v 0.3 0.8 0.3
v -0.1 0.8 0.2
v 0 0.8 0.2
v 0.1 0.8 0.2
v 0.3 0.8 0.2
v 0.5 0.8 0.2
v -0.1 0.8 -0.1
v 0 0.8 -0.1
v 0 0.8 -0.2
v 0.2 0.8 -0.2
v 0.4 0.8 -0.2
v 0.5 0.8 -0.2
v 0.4 0.8 -0.5
v 0.5 0.8 -0.5
v -0.1 0.8 -0.6
v 0 0.8 -0.6
v 0.2 0.8 -0.6
v 0.4 0.8 -0.6
v 0.5 0.8 -0.6
v 0 0.8 -0.7
v 0.4 0.8 -0.7
v -0.1 1.6 0.6
v 0.1 1.6 0.6
v 0.3 1.6 0.6
v 0.5 1.6 0.6
v -0.1 1.6 0.2
v 0.1 1.6 0.2
v 0.3 1.6 0.2
v 0.5 1.6 0.2

# faces
f 3/5/1 2/5/1 1/5/1
f 4/5/1 2/5/1 3/5/1
f 7/5/1 6/5/1 5/5/1
f 8/5/1 6/5/1 7/5/1
f 13/5/1 9/5/1 8/5/1
f 13/5/1 10/5/1 9/5/1
f 14/5/1 10/5/1 13/5/1
f 15/4/1 11/4/1 10/4/1
f 15/5/1 10/5/1 14/5/1
f 16/5/1 12/5/1 11/5/1
f 16/4/1 11/4/1 15/4/1
f 17/4/1 14/4/1 13/4/1
f 17/5/1 13/5/1 8/5/1
f 18/5/1 15/5/1 14/5/1
f 18/4/1 14/4/1 17/4/1
f 18/5/1 16/5/1 15/5/1
f 19/5/1 16/5/1 18/5/1
f 20/5/1 12/5/1 16/5/1
f 20/5/1 16/5/1 19/5/1
f 21/5/1 12/5/1 20/5/1
f 22/5/1 17/5/1 8/5/1
f 22/5/1 18/5/1 17/5/1
f 23/4/1 19/4/1 18/4/1
f 23/5/1 18/5/1 22/5/1
f 24/5/1 20/5/1 19/5/1
f 24/4/1 19/4/1 23/4/1
f 25/4/1 21/4/1 20/4/1
f 25/5/1 20/5/1 24/5/1
f 26/4/1 21/4/1 25/4/1
f 29/5/1 28/5/1 27/5/1
f 30/5/1 28/5/1 29/5/1
f 34/5/1 32/5/1 31/5/1
f 35/5/1 32/5/1 34/5/1
f 39/5/1 34/5/1 33/5/1
f 40/5/1 37/5/1 36/5/1
f 41/5/1 37/5/1 40/5/1
f 43/5/1 39/5/1 38/5/1
f 44/5/1 34/5/1 39/5/1
f 44/5/1 39/5/1 43/5/1
f 45/5/1 43/5/1 38/5/1
f 45/2/1 44/2/1 43/2/1
f 46/5/1 34/5/1 44/5/1
f 46/2/1 44/2/1 45/2/1
f 48/5/1 42/5/1 41/5/1
f 49/5/1 42/5/1 48/5/1
f 50/5/1 45/5/1 38/5/1
f 50/5/1 46/5/1 45/5/1
f 51/5/1 46/5/1 50/5/1
f 52/5/1 34/5/1 46/5/1
f 52/5/1 46/5/1 51/5/1
f 53/5/1 48/5/1 47/5/1
f 54/5/1 48/5/1 53/5/1
f 55/5/1 52/5/1 51/5/1
f 55/5/1 53/5/1 52/5/1
f 56/5/1 53/5/1 55/5/1
f 57/5/1 53/5/1 56/5/1
f 58/5/1 53/5/1 57/5/1
f 59/5/1 55/5/1 51/5/1
f 60/5/1 55/5/1 59/5/1
f 61/4/1 56/4/1 55/4/1
f 61/5/1 55/5/1 60/5/1
f 62/5/1 57/5/1 56/5/1
f 62/4/1 56/4/1 61/4/1
f 63/5/1 57/5/1 62/5/1
f 65/5/1 61/5/1 60/5/1
f 66/5/1 65/5/1 64/5/1
f 67/5/1 61/5/1 65/5/1
f 67/5/1 65/5/1 66/5/1
f 72/5/1 69/5/1 68/5/1
f 73/5/1 69/5/1 72/5/1
f 75/5/1 71/5/1 70/5/1
f 76/5/1 71/5/1 75/5/1
f 77/5/1 74/5/1 73/5/1
f 78/5/1 74/5/1 77/5/1
f 83/5/1 80/5/1 79/5/1
f 84/5/1 80/5/1 83/5/1
f 87/5/1 82/5/1 81/5/1
f 88/5/1 82/5/1 87/5/1
f 89/5/1 85/5/1 84/5/1
f 90/5/1 85/5/1 89/5/1
f 92/5/1 87/5/1 86/5/1
f 93/5/1 87/5/1 92/5/1
f 94/6/1 90/6/1 89/6/1
f 95/5/1 85/5/1 90/5/1
f 95/6/1 90/6/1 94/6/1
f 96/5/1 85/5/1 95/5/1
f 97/5/1 92/5/1 91/5/1
f 98/5/1 92/5/1 97/5/1
f 103/1/1 100/1/1 99/1/1
f 104/1/1 100/1/1 103/1/1
f 107/6/1 102/6/1 101/6/1
f 108/6/1 102/6/1 107/6/1
f 109/4/1 106/4/1 105/4/1
f 110/4/1 106/4/1 109/4/1
f 115/3/1 112/3/1 111/3/1
f 116/5/1 113/5/1 112/5/1
f 116/3/1 112/3/1 115/3/1
f 117/5/1 115/5/1 114/5/1
f 117/5/1 116/5/1 115/5/1
f 118/5/1 113/5/1 116/5/1
f 118/5/1 116/5/1 117/5/1
f 121/5/1 120/5/1 119/5/1
f 122/5/1 120/5/1 121/5/1
f 123/5/1 120/5/1 122/5/1
f 126/5/1 125/5/1 124/5/1
f 127/5/1 125/5/1 126/5/1
f 128/5/2 129/5/2 130/5/2
f 130/5/2 129/5/2 131/5/2
f 131/5/2 129/5/2 132/5/2
f 133/5/2 134/5/2 135/5/2
f 135/5/2 134/5/2 136/5/2
f 136/5/2 134/5/2 137/5/2
f 138/3/2 139/3/2 142/3/2
f 139/5/2 140/5/2 143/5/2
f 142/3/2 139/3/2 143/3/2
f 141/5/2 142/5/2 144/5/2
f 142/5/2 143/5/2 144/5/2
f 143/5/2 140/5/2 145/5/2
f 144/5/2 143/5/2 145/5/2
f 146/1/2 147/1/2 150/1/2
f 150/1/2 147/1/2 151/1/2
f 148/6/2 149/6/2 154/6/2
f 154/6/2 149/6/2 155/6/2
f 152/4/2 153/4/2 156/4/2
f 156/4/2 153/4/2 157/4/2
f 158/5/2 159/5/2 162/5/2
f 162/5/2 159/5/2 163/5/2
f 160/5/2 161/5/2 165/5/2
f 165/5/2 161/5/2 166/5/2
f 163/5/2 164/5/2 167/5/2
f 167/5/2 164/5/2 168/5/2
f 169/5/2 170/5/2 173/5/2
f 173/5/2 170/5/2 174/5/2
f 171/5/2 172/5/2 177/5/2
f 177/5/2 172/5/2 178/5/2
f 174/5/2 175/5/2 179/5/2
f 179/5/2 175/5/2 180/5/2
f 176/5/2 177/5/2 182/5/2
f 182/5/2 177/5/2 183/5/2
f 179/6/2 180/6/2 184/6/2
f 180/5/2 175/5/2 185/5/2
f 184/6/2 180/6/2 185/6/2
f 185/5/2 175/5/2 186/5/2
f 181/5/2 182/5/2 187/5/2
f 187/5/2 182/5/2 188/5/2
f 189/5/2 190/5/2 192/5/2
f 192/5/2 190/5/2 193/5/2
f 191/5/2 192/5/2 197/5/2
f 194/5/2 195/5/2 198/5/2
f 198/5/2 195/5/2 199/5/2
f 196/5/2 197/5/2 201/5/2
f 197/5/2 192/5/2 202/5/2
f 201/5/2 197/5/2 202/5/2
f 196/5/2 201/5/2 203/5/2
f 201/2/2 202/2/2 203/2/2
f 202/5/2 192/5/2 204/5/2
f 203/2/2 202/2/2 204/2/2
f 199/5/2 200/5/2 206/5/2
f 206/5/2 200/5/2 207/5/2
f 196/5/2 203/5/2 208/5/2
f 203/5/2 204/5/2 208/5/2
f 208/5/2 204/5/2 209/5/2
f 204/5/2 192/5/2 210/5/2
f 209/5/2 204/5/2 210/5/2
f 205/5/2 206/5/2 211/5/2
f 211/5/2 206/5/2 212/5/2
f 209/5/2 210/5/2 213/5/2
f 210/5/2 211/5/2 213/5/2
f 213/5/2 211/5/2 214/5/2
f 214/5/2 211/5/2 215/5/2
f 215/5/2 211/5/2 216/5/2
f 209/5/2 213/5/2 217/5/2
f 217/5/2 213/5/2 218/5/2
f 218/5/2 213/5/2 219/5/2
f 213/4/2 214/4/2 220/4/2
f 219/5/2 213/5/2 220/5/2
f 214/5/2 215/5/2 221/5/2
f 220/4/2 214/4/2 221/4/2
f 221/5/2 215/5/2 222/5/2
f 218/5/2 219/5/2 224/5/2
f 223/5/2 224/5/2 225/5/2
f 224/5/2 219/5/2 226/5/2
f 225/5/2 224/5/2 226/5/2
f 227/5/2 228/5/2 229/5/2
f 229/5/2 228/5/2 230/5/2
f 230/5/2 228/5/2 231/5/2
f 232/5/2 233/5/2 234/5/2
f 234/5/2 233/5/2 235/5/2
f 236/5/2 237/5/2 238/5/2
f 235/5/2 236/5/2 238/5/2
f 238/5/2 237/5/2 239/5/2
f 235/5/2 238/5/2 240/5/2
f 240/5/2 238/5/2 241/5/2
f 238/4/2 239/4/2 242/4/2
f 241/5/2 238/5/2 242/5/2
f 242/4/2 239/4/2 243/4/2
f 235/5/2 240/5/2 244/5/2
f 240/4/2 241/4/2 245/4/2
f 244/5/2 240/5/2 245/5/2
f 241/5/2 242/5/2 246/5/2
f 245/4/2 241/4/2 246/4/2
f 242/5/2 243/5/2 246/5/2
f 246/5/2 243/5/2 247/5/2
f 248/5/2 249/5/2 250/5/2
f 250/5/2 249/5/2 251/5/2
f 254/6/3 253/6/3 252/6/3
f 255/6/3 253/6/3 254/6/3
f 258/5/3 257/5/3 256/5/3
f 259/5/3 257/5/3 258/5/3
f 262/5/3 261/5/3 260/5/3
f 263/5/3 261/5/3 262/5/3
f 266/1/3 265/1/3 264/1/3
f 267/1/3 265/1/3 266/1/3
f 270/5/3 269/5/3 268/5/3
f 271/5/3 269/5/3 270/5/3
f 275/5/3 273/5/3 272/5/3
f 276/5/3 273/5/3 275/5/3
f 277/5/3 273/5/3 276/5/3
f 280/5/3 275/5/3 274/5/3
f 280/5/3 276/5/3 275/5/3
f 281/5/3 276/5/3 280/5/3
f 282/6/3 279/6/3 278/6/3
f 282/5/3 278/5/3 277/5/3
f 283/6/3 279/6/3 282/6/3
f 284/5/3 280/5/3 274/5/3
f 286/5/3 283/5/3 282/5/3
f 286/5/3 282/5/3 277/5/3
f 287/5/3 283/5/3 286/5/3
f 288/5/3 285/5/3 284/5/3
f 288/5/3 284/5/3 274/5/3
f 289/5/3 285/5/3 288/5/3
f 290/5/3 285/5/3 289/5/3
f 291/5/3 286/5/3 277/5/3
f 292/6/3 287/6/3 286/6/3
f 292/5/3 286/5/3 291/5/3
f 293/6/3 287/6/3 292/6/3
f 296/5/3 291/5/3 290/5/3
f 296/5/3 290/5/3 289/5/3
f 297/5/3 291/5/3 296/5/3
f 298/5/3 295/5/3 294/5/3
f 299/5/3 295/5/3 298/5/3
f 302/5/3 301/5/3 300/5/3
f 303/5/3 301/5/3 302/5/3
f 306/5/3 305/5/3 304/5/3
f 307/5/3 305/5/3 306/5/3
f 312/5/3 309/5/3 308/5/3
f 313/5/3 309/5/3 312/5/3
f 314/5/3 311/5/3 310/5/3
f 315/5/3 311/5/3 314/5/3
f 320/5/3 317/5/3 316/5/3
f 321/5/3 317/5/3 320/5/3
f 322/5/3 319/5/3 318/5/3
f 323/5/3 319/5/3 322/5/3
f 326/5/3 325/5/3 324/5/3
f 327/5/3 325/5/3 326/5/3
f 328/3/3 327/3/3 326/3/3
f 329/3/3 327/3/3 328/3/3
f 332/3/3 331/3/3 330/3/3
f 333/3/3 331/3/3 332/3/3
f 334/5/3 333/5/3 332/5/3
f 335/5/3 333/5/3 334/5/3
f 339/5/3 337/5/3 336/5/3
f 340/5/3 337/5/3 339/5/3
f 341/5/3 339/5/3 338/5/3
f 342/5/3 339/5/3 341/5/3
f 344/5/3 343/5/3 342/5/3
f 345/5/3 343/5/3 344/5/3
f 348/5/3 347/5/3 346/5/3
f 349/5/3 347/5/3 348/5/3
f 352/5/3 351/5/3 350/5/3
f 353/5/3 351/5/3 352/5/3
f 356/5/3 355/5/3 354/5/3
f 357/5/3 356/5/3 354/5/3
f 358/5/3 356/5/3 357/5/3
f 361/5/3 360/5/3 359/5/3
f 362/5/3 360/5/3 361/5/3
f 363/5/4 364/5/4 365/5/4
f 365/5/4 364/5/4 366/5/4
f 367/5/4 368/5/4 369/5/4
f 369/5/4 368/5/4 370/5/4
f 371/5/4 372/5/4 373/5/4
f 373/5/4 372/5/4 374/5/4
f 374/5/4 372/5/4 375/5/4
f 376/5/4 377/5/4 378/5/4
f 378/5/4 377/5/4 379/5/4
f 380/5/4 381/5/4 382/5/4
f 382/5/4 381/5/4 383/5/4
f 384/5/4 385/5/4 386/5/4
f 386/5/4 385/5/4 387/5/4
f 388/5/4 389/5/4 390/5/4
f 390/5/4 391/5/4 393/5/4
f 391/4/4 392/4/4 394/4/4
f 393/5/4 391/5/4 394/5/4
f 394/4/4 392/4/4 395/4/4
f 388/5/4 390/5/4 396/5/4
f 390/5/4 393/5/4 396/5/4
f 396/5/4 393/5/4 397/5/4
f 394/5/4 395/5/4 398/5/4
f 398/5/4 395/5/4 399/5/4
f 388/5/4 396/5/4 401/5/4
f 401/5/4 396/5/4 402/5/4
f 399/5/4 400/5/4 403/5/4
f 403/5/4 400/5/4 404/5/4
f 388/5/4 401/5/4 406/5/4
f 404/5/4 405/5/4 409/5/4
f 409/5/4 405/5/4 410/5/4
f 406/5/4 407/5/4 411/5/4
f 408/5/4 409/5/4 414/5/4
f 414/5/4 409/5/4 415/5/4
f 411/5/4 412/5/4 416/5/4
f 413/5/4 414/5/4 418/5/4
f 406/5/4 411/5/4 419/5/4
f 411/5/4 416/5/4 419/5/4
f 416/4/4 417/4/4 420/4/4
f 419/5/4 416/5/4 420/5/4
f 417/5/4 418/5/4 421/5/4
f 420/4/4 417/4/4 421/4/4
f 418/5/4 414/5/4 422/5/4
f 421/5/4 418/5/4 422/5/4
f 388/5/4 406/5/4 423/5/4
f 406/5/4 419/5/4 423/5/4
f 423/5/4 419/5/4 424/5/4
f 425/5/4 426/5/4 428/5/4
f 428/5/4 426/5/4 429/5/4
f 427/5/4 428/5/4 432/5/4
f 432/5/4 428/5/4 433/5/4
f 429/5/4 430/5/4 434/5/4
f 434/5/4 430/5/4 435/5/4
f 431/5/4 432/5/4 437/5/4
f 437/5/4 432/5/4 438/5/4
f 435/5/4 436/5/4 441/5/4
f 441/5/4 436/5/4 442/5/4
f 438/5/4 439/5/4 443/5/4
f 443/5/4 439/5/4 444/5/4
f 440/5/4 441/5/4 445/5/4
f 445/5/4 441/5/4 446/5/4
f 444/5/4 445/5/4 447/5/4
f 447/5/4 445/5/4 448/5/4
f 449/5/4 450/5/4 452/5/4
f 452/5/4 450/5/4 453/5/4
f 451/5/4 452/5/4 455/5/4
f 453/5/4 454/5/4 455/5/4
f 452/5/4 453/5/4 455/5/4
f 455/5/4 454/5/4 456/5/4
f 451/5/4 455/5/4 457/5/4
f 451/5/4 457/5/4 459/5/4
f 457/5/4 458/5/4 459/5/4
f 459/5/4 458/5/4 460/5/4
f 460/5/4 458/5/4 461/5/4
f 461/5/4 458/5/4 462/5/4
f 460/5/4 461/5/4 463/5/4
f 463/5/4 461/5/4 464/5/4
f 465/4/4 466/4/4 467/4/4
f 467/4/4 466/4/4 468/4/4
f 473/5/5 470/5/5 469/5/5
f 474/5/5 470/5/5 473/5/5
f 475/5/5 472/5/5 471/5/5
f 476/5/5 472/5/5 475/5/5
f 481/5/5 478/5/5 477/5/5
f 482/5/5 475/5/5 474/5/5
f 483/5/5 475/5/5 482/5/5
f 484/5/5 480/5/5 479/5/5
f 485/5/5 483/5/5 482/5/5
f 485/5/5 484/5/5 483/5/5
f 485/5/5 481/5/5 477/5/5
f 485/5/5 482/5/5 481/5/5
f 486/5/5 480/5/5 484/5/5
f 486/5/5 484/5/5 485/5/5
f 489/5/5 488/5/5 487/5/5
f 490/5/5 488/5/5 489/5/5
f 494/5/5 492/5/5 491/5/5
f 495/5/5 492/5/5 494/5/5
f 498/5/5 494/5/5 493/5/5
f 498/5/5 496/5/5 495/5/5
f 498/5/5 495/5/5 494/5/5
f 499/5/5 496/5/5 498/5/5
f 501/5/5 498/5/5 497/5/5
f 502/5/5 500/5/5 499/5/5
f 503/5/5 498/5/5 501/5/5
f 504/5/5 498/5/5 503/5/5
f 505/4/5 504/4/5 503/4/5
f 506/5/5 498/5/5 504/5/5
f 506/4/5 504/4/5 505/4/5
f 507/5/5 498/5/5 506/5/5
f 508/5/5 502/5/5 499/5/5
f 509/5/5 502/5/5 508/5/5
f 514/5/5 511/5/5 510/5/5
f 515/5/5 511/5/5 514/5/5
f 516/5/5 513/5/5 512/5/5
f 517/5/5 513/5/5 516/5/5
f 518/5/5 516/5/5 515/5/5
f 519/5/5 516/5/5 518/5/5
f 524/1/5 521/1/5 520/1/5
f 525/1/5 521/1/5 524/1/5
f 528/5/5 523/5/5 522/5/5
f 529/5/5 523/5/5 528/5/5
f 530/5/5 527/5/5 526/5/5
f 531/5/5 527/5/5 530/5/5
f 536/5/5 533/5/5 532/5/5
f 537/5/5 533/5/5 536/5/5
f 540/5/5 535/5/5 534/5/5
f 541/5/5 535/5/5 540/5/5
f 542/5/5 538/5/5 537/5/5
f 543/5/5 538/5/5 542/5/5
f 544/5/5 540/5/5 539/5/5
f 545/5/5 540/5/5 544/5/5
f 549/6/5 547/6/5 546/6/5
f 550/6/5 547/6/5 549/6/5
f 552/5/5 549/5/5 548/5/5
f 552/5/5 551/5/5 550/5/5
f 552/5/5 550/5/5 549/5/5
f 553/5/5 551/5/5 552/5/5
f 554/5/5 552/5/5 548/5/5
f 555/5/5 552/5/5 554/5/5
f 556/5/5 551/5/5 553/5/5
f 557/5/5 551/5/5 556/5/5
f 560/4/5 559/4/5 558/4/5
f 561/4/5 559/4/5 560/4/5
f 566/5/5 563/5/5 562/5/5
f 567/5/5 563/5/5 566/5/5
f 568/5/5 563/5/5 567/5/5
f 569/5/5 565/5/5 564/5/5
f 570/5/5 565/5/5 569/5/5
f 571/5/5 565/5/5 570/5/5
f 572/5/6 573/5/6 576/5/6
f 574/5/6 575/5/6 577/5/6
f 572/5/6 576/5/6 578/5/6
f 578/5/6 576/5/6 579/5/6
f 577/5/6 575/5/6 580/5/6
f 580/5/6 575/5/6 581/5/6
f 582/5/6 583/5/6 586/5/6
f 582/5/6 586/5/6 587/5/6
f 582/5/6 587/5/6 588/5/6
f 588/5/6 587/5/6 589/5/6
f 584/5/6 585/5/6 590/5/6
f 590/5/6 585/5/6 591/5/6
f 592/5/6 593/5/6 596/5/6
f 596/5/6 593/5/6 597/5/6
f 594/5/6 595/5/6 600/5/6
f 600/5/6 595/5/6 601/5/6
f 597/5/6 598/5/6 602/5/6
f 602/5/6 598/5/6 603/5/6
f 599/5/6 600/5/6 604/5/6
f 604/5/6 600/5/6 605/5/6
f 606/6/6 607/6/6 609/6/6
f 609/6/6 607/6/6 610/6/6
f 608/5/6 609/5/6 613/5/6
f 610/5/6 611/5/6 613/5/6
f 609/5/6 610/5/6 613/5/6
f 613/5/6 611/5/6 614/5/6
f 612/5/6 613/5/6 616/5/6
f 616/5/6 613/5/6 617/5/6
f 614/5/6 615/5/6 618/5/6
f 618/5/6 615/5/6 619/5/6
f 622/5/6 623/5/6 624/5/6
f 624/5/6 623/5/6 625/5/6
f 620/5/6 621/5/6 626/5/6
f 626/5/6 621/5/6 627/5/6
f 622/5/6 624/5/6 628/5/6
f 624/4/6 625/4/6 628/4/6
f 628/4/6 625/4/6 629/4/6
f 626/4/6 627/4/6 630/4/6
f 627/5/6 621/5/6 631/5/6
f 630/4/6 627/4/6 631/4/6
f 630/5/6 631/5/6 632/5/6
f 631/5/6 621/5/6 633/5/6
f 632/5/6 631/5/6 633/5/6
f 632/4/6 633/4/6 634/4/6
f 633/5/6 621/5/6 635/5/6
f 634/4/6 633/4/6 635/4/6
f 635/5/6 621/5/6 636/5/6
f 622/5/6 628/5/6 639/5/6
f 628/5/6 629/5/6 639/5/6
f 639/5/6 629/5/6 640/5/6
f 636/5/6 637/5/6 641/5/6
f 641/5/6 637/5/6 642/5/6
f 638/5/6 639/5/6 643/5/6
f 643/5/6 639/5/6 644/5/6
f 642/5/6 643/5/6 645/5/6
f 645/5/6 643/5/6 646/5/6
f 646/5/6 643/5/6 647/5/6
f 647/5/6 643/5/6 648/5/6
f 646/4/6 647/4/6 649/4/6
f 649/4/6 647/4/6 650/4/6
f 651/5/6 652/5/6 655/5/6
f 655/5/6 652/5/6 656/5/6
f 653/5/6 654/5/6 657/5/6
f 657/5/6 654/5/6 658/5/6
f 656/5/6 657/5/6 659/5/6
f 659/5/6 657/5/6 660/5/6
f 661/6/6 662/6/6 665/6/6
f 662/5/6 663/5/6 666/5/6
f 665/6/6 662/6/6 666/6/6
f 663/6/6 664/6/6 667/6/6
f 666/5/6 663/5/6 667/5/6
f 667/6/6 664/6/6 668/6/6
f 665/5/6 666/5/6 670/5/6
f 666/5/6 667/5/6 670/5/6
f 667/5/6 668/5/6 670/5/6
f 670/5/6 668/5/6 671/5/6
f 670/5/6 671/5/6 673/5/6
f 671/5/6 672/5/6 673/5/6
f 669/5/6 670/5/6 673/5/6
f 673/5/6 672/5/6 674/5/6
f 674/5/6 672/5/6 675/5/6
f 675/5/6 672/5/6 676/5/6
f 676/5/6 672/5/6 677/5/6
f 677/5/6 672/5/6 678/5/6
f 675/5/6 676/5/6 679/5/6
f 679/5/6 676/5/6 680/5/6
f 679/5/6 680/5/6 683/5/6
f 683/5/6 680/5/6 684/5/6
f 681/4/6 682/4/6 686/4/6
f 684/5/6 685/5/6 687/5/6
f 686/4/6 682/4/6 687/4/6
f 683/5/6 684/5/6 687/5/6
f 682/5/6 683/5/6 687/5/6
f 686/5/6 687/5/6 688/5/6
f 687/5/6 685/5/6 688/5/6
f 688/5/6 685/5/6 689/5/6
f 689/5/6 685/5/6 690/5/6
f 690/5/6 685/5/6 691/5/6
f 689/5/6 690/5/6 692/5/6
f 690/4/6 691/4/6 692/4/6
f 692/4/6 691/4/6 693/4/6
f 686/5/6 688/5/6 694/5/6
f 688/4/6 689/4/6 695/4/6
f 694/5/6 688/5/6 695/5/6
f 689/5/6 692/5/6 696/5/6
f 695/4/6 689/4/6 696/4/6
f 692/5/6 693/5/6 696/5/6
f 696/5/6 693/5/6 697/5/6
f 697/5/6 693/5/6 698/5/6
f 695/5/6 696/5/6 699/5/6
f 696/5/6 697/5/6 699/5/6
f 699/5/6 697/5/6 700/5/6
f 701/5/6 702/5/6 705/5/6
f 705/5/6 702/5/6 706/5/6
f 703/5/6 704/5/6 707/5/6
f 707/5/6 704/5/6 708/5/6
